<svg width="590" height="590" viewBox="0 0 590 590" fill="none" xmlns="http://www.w3.org/2000/svg">
<path d="M295 590C457.924 590 590 457.924 590 295C590 132.076 457.924 0 295 0C132.076 0 0 132.076 0 295C0 457.924 132.076 590 295 590Z" fill="#282C34"/>
<path d="M294 339C357.513 339 409 287.513 409 224C409 160.487 357.513 109 294 109C230.487 109 179 160.487 179 224C179 287.513 230.487 339 294 339Z" fill="white"/>
<path fill-rule="evenodd" clip-rule="evenodd" d="M492.271 491.709C441.579 542.544 371.463 574 294 574C216.537 574 146.421 542.544 95.7293 491.709C118.847 403.82 198.854 339 294 339C389.146 339 469.153 403.82 492.271 491.709Z" fill="white"/>
</svg>
