<svg width="24" height="24" viewBox="0 0 24 24" fill="none" xmlns="http://www.w3.org/2000/svg">
<path fill-rule="evenodd" clip-rule="evenodd" d="M20.9472 19.7676C22.7725 17.6692 23.8776 14.9313 23.8776 11.9388C23.8776 5.35166 18.5197 0 11.9388 0C5.35166 0 0 5.35787 0 11.9388C0 18.5197 5.35787 23.8776 11.9388 23.8776C14.9313 23.8776 17.6692 22.7725 19.7676 20.9472C20.2509 20.5269 20.4881 20.2955 20.9472 19.7676ZM11.9326 1.67628C6.27672 1.67628 1.67007 6.27672 1.67007 11.9388C1.67007 17.6009 6.27672 22.2075 11.9326 22.2075C17.5947 22.2075 22.1951 17.5947 22.1951 11.9388C22.1951 6.28293 17.5947 1.67628 11.9326 1.67628Z" fill="#282C34"/>
<path fill-rule="evenodd" clip-rule="evenodd" d="M7.90482 6.56046C7.53352 6.18916 6.93152 6.18916 6.56022 6.56046C6.18891 6.93176 6.18891 7.53376 6.56022 7.90507L10.5941 11.939L6.56036 15.9727C6.18906 16.344 6.18906 16.946 6.56036 17.3173C6.93166 17.6886 7.53366 17.6886 7.90497 17.3173L11.9387 13.2836L15.9725 17.3173C16.3438 17.6886 16.9458 17.6886 17.3171 17.3173C17.6884 16.946 17.6884 16.344 17.3171 15.9727L13.2833 11.939L17.3172 7.90508C17.6885 7.53378 17.6885 6.93177 17.3172 6.56047C16.9459 6.18917 16.3439 6.18917 15.9726 6.56047L11.9387 10.5944L7.90482 6.56046Z" fill="#282C34"/>
</svg>
