<svg width="28" height="28" viewBox="0 0 28 28" fill="none" xmlns="http://www.w3.org/2000/svg">
<path d="M27.7517 26.5721L20.9472 19.7676C22.7725 17.6692 23.8776 14.9313 23.8776 11.9388C23.8776 5.35166 18.5197 0 11.9388 0C5.35167 0 0 5.35787 0 11.9388C0 18.5197 5.35788 23.8776 11.9388 23.8776C14.9312 23.8776 17.6692 22.7725 19.7676 20.9472L26.572 27.7517C26.7335 27.9131 26.9508 28 27.1618 28C27.3729 28 27.5902 27.9193 27.7517 27.7517C28.0745 27.4288 28.0745 26.8949 27.7517 26.5721ZM1.67007 11.9388C1.67007 6.27672 6.27672 1.67628 11.9326 1.67628C17.5947 1.67628 22.1951 6.28293 22.1951 11.9388C22.1951 17.5947 17.5947 22.2075 11.9326 22.2075C6.27672 22.2075 1.67007 17.6009 1.67007 11.9388Z" fill="#282C34"/>
</svg>
